<svg width="27" height="27" viewBox="0 0 27 27" fill="none" xmlns="http://www.w3.org/2000/svg">
<g opacity="0.65">
<path d="M15.6086 3.83738L15.5639 3.7875H15.4969H6.1875H6.0375V3.9375V23.0625V23.2125H6.1875H20.8125H20.9625V23.0625V9.16875V9.10218L20.9131 9.05752L17.6033 6.06279L15.6086 3.83738ZM17.8781 18.4312V19.8188H9.12187V18.4312H17.8781ZM13.5 15.0375H9.12187V13.65H13.5H17.8781V15.0375H13.5ZM6.1875 24.6C5.77988 24.6 5.42358 24.4489 5.11232 24.1377C4.80105 23.8264 4.65 23.4701 4.65 23.0625V3.9375C4.65 3.52988 4.80105 3.17358 5.11232 2.86232C5.42358 2.55105 5.77988 2.4 6.1875 2.4H16.2785L22.35 8.47151V23.0625C22.35 23.4701 22.1989 23.8264 21.8877 24.1377C21.5764 24.4489 21.2201 24.6 20.8125 24.6H6.1875Z" fill="white" stroke="#2D333A" stroke-width="0.3"/>
<mask id="path-2-inside-1_246_2326" fill="white">
<path d="M9 9H18V9.8H9V9Z"/>
</mask>
<path d="M9 9H18V9.8H9V9Z" fill="white"/>
<path d="M17.8 9V9.8H18.2V9H17.8ZM9.2 9.8V9H8.8V9.8H9.2Z" fill="#2D333A" mask="url(#path-2-inside-1_246_2326)"/>
</g>
</svg>
