<svg width="60" height="68" viewBox="0 0 60 68" fill="none" xmlns="http://www.w3.org/2000/svg">
<path d="M4.09375 8.6875V8.4375H3.84375H0.25V3.3125H17.625H17.875V3.0625V0.5H42.125V3.0625V3.3125H42.375H59.75V8.4375H56.1562H55.9062V8.6875V62.125C55.9062 63.5544 55.3732 64.8045 54.292 65.8857C53.2107 66.967 51.9606 67.5 50.5312 67.5H9.46875C7.9718 67.5 6.70749 66.9789 5.66115 65.9326C4.61482 64.8863 4.09375 63.622 4.09375 62.125V8.6875ZM50.7812 8.6875V8.4375H50.5312H9.46875H9.21875V8.6875V62.125V62.375H9.46875H50.5312H50.7812V62.125V8.6875ZM24.7812 16.9062V53.8125H19.6562V16.9062H24.7812ZM40.3438 16.9062V53.8125H35.2188V16.9062H40.3438Z" fill="#FB7676" stroke="white" stroke-width="0.5"/>
</svg>
