<svg width="76" height="76" viewBox="0 0 76 76" fill="none" xmlns="http://www.w3.org/2000/svg">
<path d="M20.7071 23.9375L23.9375 20.7071L37.6464 34.4161L38 34.7696L38.3536 34.4161L52.0625 20.7071L55.2929 23.9375L41.5839 37.6464L41.2304 38L41.5839 38.3536L55.2929 52.0625L52.0625 55.2929L38.3536 41.5839L38 41.2304L37.6464 41.5839L23.9375 55.2929L20.7071 52.0625L34.4161 38.3536L34.7696 38L34.4161 37.6464L20.7071 23.9375ZM38 75C32.9409 75 28.1648 74.0287 23.6668 72.0878C19.1605 70.1433 15.2293 67.491 11.8692 64.1308C8.50903 60.7707 5.85673 56.8395 3.91221 52.3332C1.9713 47.8352 1 43.0591 1 38C1 32.8776 1.97164 28.0703 3.91221 23.5731C5.85655 19.0672 8.50839 15.1523 11.8675 11.8239C15.2278 8.49446 19.1595 5.85714 23.6668 3.91221C28.1648 1.9713 32.9409 1 38 1C43.1224 1 47.9297 1.97164 52.4269 3.91221C56.9338 5.85697 60.8492 8.49382 64.1777 11.8223C67.5062 15.1508 70.143 19.0662 72.0878 23.5731C74.0284 28.0703 75 32.8776 75 38C75 43.0591 74.0287 47.8352 72.0878 52.3332C70.1429 56.8405 67.5055 60.7722 64.1761 64.1325C60.8477 67.4916 56.9328 70.1434 52.4269 72.0878C47.9297 74.0284 43.1224 75 38 75ZM38 70.375C47.0063 70.375 54.6656 67.2138 60.9482 60.8995C67.2294 54.5866 70.375 46.944 70.375 38C70.375 28.9945 67.2301 21.3355 60.9473 15.0527C54.6645 8.76994 47.0055 5.625 38 5.625C29.056 5.625 21.4134 8.77061 15.1005 15.0518C8.78617 21.3344 5.625 28.9937 5.625 38C5.625 46.9448 8.78684 54.5877 15.0996 60.9004C21.4123 67.2132 29.0552 70.375 38 70.375Z" fill="#FB7676" stroke="white"/>
</svg>
