<svg width="27" height="27" viewBox="0 0 27 27" fill="none" xmlns="http://www.w3.org/2000/svg">
<g opacity="0.65">
<path d="M4.9125 10.9688V11.1188H5.0625H10.9688H11.1188V10.9688V5.0625V4.9125H10.9688H5.0625H4.9125V5.0625V10.9688ZM15.8813 10.9688V11.1188H16.0312H21.9375H22.0875V10.9688V5.0625V4.9125H21.9375H16.0312H15.8813V5.0625V10.9688ZM15.8813 21.9375V22.0875H16.0312H21.9375H22.0875V21.9375V16.0312V15.8813H21.9375H16.0312H15.8813V16.0312V21.9375ZM4.9125 21.9375V22.0875H5.0625H10.9688H11.1188V21.9375V16.0312V15.8813H10.9688H5.0625H4.9125V16.0312V21.9375ZM3.525 12.5063V3.525H12.5063V12.5063H3.525ZM3.525 23.475V14.4937H12.5063V23.475H3.525ZM14.4937 12.5063V3.525H23.475V12.5063H14.4937ZM14.4937 23.475V14.4937H23.475V23.475H14.4937Z" fill="white" stroke="#2D333A" stroke-width="0.3"/>
</g>
</svg>
