<svg width="27" height="27" viewBox="0 0 27 27" fill="none" xmlns="http://www.w3.org/2000/svg">
<rect x="4" y="4" width="19" height="19" fill="white"/>
<path d="M5.0625 23.625C4.6125 23.625 4.21875 23.4562 3.88125 23.1187C3.54375 22.7812 3.375 22.3875 3.375 21.9375V5.0625C3.375 4.6125 3.54375 4.21875 3.88125 3.88125C4.21875 3.54375 4.6125 3.375 5.0625 3.375H21.9375C22.3875 3.375 22.7812 3.54375 23.1187 3.88125C23.4562 4.21875 23.625 4.6125 23.625 5.0625V21.9375C23.625 22.3875 23.4562 22.7812 23.1187 23.1187C22.7812 23.4562 22.3875 23.625 21.9375 23.625H5.0625ZM5.0625 21.9375H21.9375V5.0625H5.0625V21.9375Z" fill="white"/>
<path d="M7.69219 17.7656L6.9375 17.0109L11.8594 12.0891L14.4844 14.7305L19.3734 9.23438L20.0625 9.90703L14.4844 16.207L11.8594 13.5984L7.69219 17.7656Z" fill="black"/>
</svg>
