<svg width="37" height="37" viewBox="0 0 37 37" fill="none" xmlns="http://www.w3.org/2000/svg">
<path d="M23.925 23.6H25.9V24.9H10.1V23.6H12.1H12.2V23.5V15.85C12.2 14.4712 12.6057 13.2467 13.4173 12.1728C14.2276 11.1006 15.294 10.4263 16.6205 10.1479L16.7 10.1312V10.05V9.325C16.7 8.96884 16.8263 8.67938 17.0798 8.44899C17.3357 8.2163 17.6407 8.1 18 8.1C18.3593 8.1 18.6643 8.2163 18.9202 8.44899C19.1737 8.67938 19.3 8.96884 19.3 9.325V10.05V10.1312L19.3795 10.1479C20.7061 10.4263 21.7768 11.1007 22.5955 12.1732C23.4153 13.2471 23.825 14.4715 23.825 15.85V23.5V23.6H23.925ZM13.5 23.5V23.6H13.6H22.425H22.525V23.5V15.85C22.525 14.591 22.0901 13.5157 21.2214 12.63C20.3523 11.7438 19.2847 11.3 18.025 11.3C16.7653 11.3 15.6938 11.7438 14.8164 12.6296C13.9393 13.5153 13.5 14.5906 13.5 15.85V23.5ZM18 27.9C17.4942 27.9 17.0523 27.7154 16.67 27.341C16.3133 26.9919 16.1251 26.5796 16.1023 26.1H19.8977C19.8754 26.5803 19.6909 26.9927 19.3418 27.3418C18.9687 27.7149 18.5233 27.9 18 27.9Z" fill="#2D333A" stroke="white" stroke-width="0.2"/>
<rect x="0.5" y="0.5" width="36" height="36" rx="18" stroke="#2D333A" stroke-opacity="0.2"/>
<circle cx="22.639" cy="13.3607" r="2.83333" fill="#FF3939" stroke="white" stroke-width="0.5"/>
</svg>
