<svg width="27" height="27" viewBox="0 0 27 27" fill="none" xmlns="http://www.w3.org/2000/svg">
<g opacity="0.65">
<path d="M4.9625 21.9375V22.0375H5.0625H21.9375H22.0375V21.9375V5.0625V4.9625H21.9375H5.0625H4.9625V5.0625V21.9375ZM5.0625 23.525C4.64076 23.525 4.27197 23.368 3.95196 23.048C3.63195 22.728 3.475 22.3592 3.475 21.9375V5.0625C3.475 4.64076 3.63195 4.27197 3.95196 3.95196C4.27197 3.63195 4.64076 3.475 5.0625 3.475H21.9375C22.3592 3.475 22.728 3.63195 23.048 3.95196C23.368 4.27197 23.525 4.64076 23.525 5.0625V21.9375C23.525 22.3592 23.368 22.728 23.048 23.048C22.728 23.368 22.3592 23.525 21.9375 23.525H5.0625Z" fill="white" stroke="#2D333A" stroke-width="0.2"/>
<path d="M7.69219 17.7656L6.9375 17.0109L11.8594 12.0891L14.4844 14.7305L19.3734 9.23438L20.0625 9.90703L14.4844 16.207L11.8594 13.5984L7.69219 17.7656Z" fill="white"/>
</g>
</svg>
