<svg width="27" height="27" viewBox="0 0 27 27" fill="none" xmlns="http://www.w3.org/2000/svg">
<g opacity="0.65">
<path d="M4.6875 21.7125H12.7219V23.1H4.6875C4.27988 23.1 3.92358 22.9489 3.61232 22.6377C3.30105 22.3264 3.15 21.9701 3.15 21.5625V4.6875C3.15 4.27988 3.30105 3.92358 3.61232 3.61232C3.92358 3.30105 4.27988 3.15 4.6875 3.15H12.7219V4.5375H4.6875H4.5375V4.6875V21.5625V21.7125H4.6875ZM20.0156 13.8188H10.3219V12.4312H19.9594H20.3215L20.0654 12.1752L17.3028 9.4125L18.3 8.41526L23.0379 13.1531L18.3562 17.8347L17.359 16.8375L20.1217 14.0748L20.3778 13.8188H20.0156Z" fill="white" stroke="#2D333A" stroke-width="0.3"/>
</g>
</svg>
