<svg width="439" height="627" viewBox="0 0 439 627" fill="none" xmlns="http://www.w3.org/2000/svg">
<path d="M183.493 140.183C183.493 159.135 168.092 174.502 149.088 174.502C130.084 174.502 114.683 159.135 114.683 140.183C114.683 121.232 130.084 105.864 149.088 105.864C168.092 105.864 183.493 121.232 183.493 140.183Z" stroke="#A58C7E" stroke-width="2"/>
<path opacity="0.5" d="M1.03371 244.911C1.30466 110.049 111.176 0.769988 246.043 0.500499V244.911H1.03371Z" stroke="white"/>
<path opacity="0.5" d="M438.033 435.705C437.762 330.604 352.149 245.453 247.043 245.183V435.705H438.033Z" stroke="white"/>
<path d="M0.533203 245.411C0.533203 380.948 111.006 490.822 246.543 490.822V245.411H0.533203Z" fill="white"/>
<path opacity="0.5" d="M438.033 435.977C437.762 541.078 352.149 626.23 247.043 626.499V435.977H438.033Z" stroke="white"/>
<path fill-rule="evenodd" clip-rule="evenodd" d="M143.544 326.818L127.924 313.833V300.848L143.544 313.833V326.818ZM143.544 391.744H127.924V321.624L143.544 334.609V391.744Z" fill="#2D333A"/>
<path fill-rule="evenodd" clip-rule="evenodd" d="M148.751 339.803V391.743H164.371H200.818L188.065 376.161H164.371V352.788L148.751 339.803Z" fill="#A58C7E"/>
<path d="M349.703 513.033C349.703 525.022 339.96 534.744 327.938 534.744C315.917 534.744 306.173 525.022 306.173 513.033C306.173 501.044 315.917 491.322 327.938 491.322C339.96 491.322 349.703 501.044 349.703 513.033Z" stroke="#A58C7E"/>
</svg>
