<svg width="13" height="13" viewBox="0 0 13 13" fill="none" xmlns="http://www.w3.org/2000/svg">
<path d="M1 11.9999H1.73333L9.11667 4.61654L8.38333 3.8832L1 11.2665V11.9999ZM11.2333 3.89987L9.1 1.76654L9.8 1.06654C9.98889 0.877648 10.2222 0.783203 10.5 0.783203C10.7778 0.783203 11.0111 0.877648 11.2 1.06654L11.9333 1.79987C12.1222 1.98876 12.2167 2.22209 12.2167 2.49987C12.2167 2.77765 12.1222 3.01098 11.9333 3.19987L11.2333 3.89987ZM10.5333 4.59987L2.13333 12.9999H0V10.8665L8.4 2.46654L10.5333 4.59987ZM8.75 4.24987L8.38333 3.8832L9.11667 4.61654L8.75 4.24987Z" fill="black" fill-opacity="0.5"/>
</svg>
