<svg width="27" height="27" viewBox="0 0 27 27" fill="none" xmlns="http://www.w3.org/2000/svg">
<g opacity="0.65">
<path d="M10.4981 21.1827L10.4844 21.0959L10.4019 21.0655C10.0547 20.9376 9.6873 20.7633 9.29942 20.5416C8.91158 20.32 8.57165 20.0901 8.27896 19.8523L8.20666 19.7936L8.12196 19.8324L4.92826 21.2939L2.44637 16.9172L5.37606 14.7742L5.4552 14.7163L5.43393 14.6206C5.39873 14.4622 5.37613 14.279 5.36705 14.07C5.35774 13.856 5.35313 13.6661 5.35313 13.5C5.35313 13.3339 5.35774 13.144 5.36705 12.93C5.37613 12.721 5.39873 12.5378 5.43393 12.3794L5.4552 12.2837L5.37606 12.2258L2.44637 10.0828L4.92826 5.70613L8.12196 7.16765L8.20666 7.20641L8.27896 7.14767C8.57165 6.90986 8.91158 6.67999 9.29942 6.45836C9.6858 6.23758 10.051 6.0736 10.3952 5.96491L10.4837 5.93695L10.4982 5.84521L11.0407 2.4H15.9594L16.5019 5.81727L16.5156 5.9041L16.5981 5.9345C16.9468 6.06294 17.3201 6.23333 17.7183 6.44633C18.1121 6.65694 18.4431 6.88876 18.7133 7.14091L18.7867 7.20944L18.878 7.16765L22.0717 5.70613L24.5528 10.0814L21.6254 12.1685L21.5464 12.2248L21.5654 12.32C21.6012 12.4991 21.6239 12.6929 21.633 12.9018C21.6422 13.1156 21.6469 13.315 21.6469 13.5C21.6469 13.685 21.6422 13.8796 21.633 14.0838C21.6239 14.2831 21.6013 14.4724 21.5654 14.6518L21.5465 14.7464L21.6247 14.8029L24.5532 16.9179L22.0717 21.2939L18.878 19.8324L18.7933 19.7936L18.721 19.8523C18.427 20.0912 18.0905 20.3264 17.711 20.5579C17.3359 20.7865 16.9679 20.9543 16.6069 21.0626L16.5166 21.0897L16.5019 21.1827L15.9594 24.6H11.0406L10.4981 21.1827ZM12.1137 23.0811L12.1301 23.2125H12.2625H14.7375H14.8699L14.8863 23.0811L15.2673 20.033C15.863 19.8791 16.4286 19.6479 16.964 19.3393C17.4988 19.0311 17.9865 18.6627 18.427 18.2342L21.3153 19.4876L21.4401 19.5418L21.5061 19.4228L22.6311 17.3978L22.6953 17.2823L22.5888 17.2041L20.0246 15.3219C20.0904 15.0325 20.1446 14.7468 20.1874 14.4647C20.2354 14.1477 20.2594 13.8261 20.2594 13.5C20.2594 13.1754 20.2403 12.8553 20.202 12.5398C20.1675 12.2547 20.1098 11.9664 20.0291 11.6748L22.5888 9.79592L22.6953 9.7177L22.6311 9.60215L21.5061 7.57715L21.4401 7.45825L21.3153 7.5124L18.4331 8.76316C18.0102 8.30025 17.5353 7.90965 17.0087 7.59188C16.4787 7.272 15.8973 7.06036 15.266 6.95646L14.8863 3.91889L14.8699 3.7875H14.7375H12.2625H12.1301L12.1137 3.91889L11.7331 6.9632C11.1198 7.10018 10.5446 7.32328 10.0079 7.63254C9.47262 7.94101 8.99284 8.31827 8.56895 8.76405L5.68471 7.5124L5.55993 7.45825L5.49388 7.57715L4.36888 9.60215L4.30468 9.7177L4.41124 9.79592L6.97535 11.6781C6.90963 11.9675 6.85538 12.2532 6.81263 12.5353C6.76461 12.8523 6.74062 13.1739 6.74062 13.5C6.74062 13.8261 6.76461 14.1477 6.81263 14.4647C6.85538 14.7468 6.90963 15.0325 6.97535 15.3219L4.41124 17.2041L4.30468 17.2823L4.36888 17.3978L5.49388 19.4228L5.55993 19.5418L5.68471 19.4876L8.57304 18.2342C9.01348 18.6627 9.50123 19.0311 10.036 19.3393C10.5714 19.6479 11.137 19.8791 11.7327 20.033L12.1137 23.0811ZM15.9814 15.9814C15.2972 16.6657 14.4729 17.0063 13.5 17.0063C12.5271 17.0063 11.7028 16.6657 11.0186 15.9814C10.3343 15.2972 9.99375 14.4729 9.99375 13.5C9.99375 12.5271 10.3343 11.7028 11.0186 11.0186C11.7028 10.3343 12.5271 9.99375 13.5 9.99375C14.4729 9.99375 15.2972 10.3343 15.9814 11.0186C16.6657 11.7028 17.0063 12.5271 17.0063 13.5C17.0063 14.4729 16.6657 15.2972 15.9814 15.9814ZM12.0017 14.9983C12.4143 15.4108 12.9165 15.6187 13.5 15.6187C14.0835 15.6187 14.5857 15.4108 14.9983 14.9983C15.4108 14.5857 15.6187 14.0835 15.6187 13.5C15.6187 12.9165 15.4108 12.4143 14.9983 12.0017C14.5857 11.5892 14.0835 11.3813 13.5 11.3813C12.9165 11.3813 12.4143 11.5892 12.0017 12.0017C11.5892 12.4143 11.3813 12.9165 11.3813 13.5C11.3813 14.0835 11.5892 14.5857 12.0017 14.9983Z" fill="white" stroke="#2D333A" stroke-width="0.3"/>
</g>
</svg>
