<svg width="16" height="11" viewBox="0 0 16 11" fill="none" xmlns="http://www.w3.org/2000/svg">
<path d="M8.00033 8.50033C8.78922 8.50033 9.45866 8.22533 10.0087 7.67533C10.5587 7.12533 10.8337 6.45588 10.8337 5.66699C10.8337 4.8781 10.5587 4.20866 10.0087 3.65866C9.45866 3.10866 8.78922 2.83366 8.00033 2.83366C7.21144 2.83366 6.54199 3.10866 5.99199 3.65866C5.44199 4.20866 5.16699 4.8781 5.16699 5.66699C5.16699 6.45588 5.44199 7.12533 5.99199 7.67533C6.54199 8.22533 7.21144 8.50033 8.00033 8.50033ZM8.00033 7.53366C7.4781 7.53366 7.03644 7.3531 6.67533 6.99199C6.31421 6.63088 6.13366 6.18921 6.13366 5.66699C6.13366 5.14477 6.31421 4.7031 6.67533 4.34199C7.03644 3.98088 7.4781 3.80033 8.00033 3.80033C8.52255 3.80033 8.96421 3.98088 9.32533 4.34199C9.68644 4.7031 9.86699 5.14477 9.86699 5.66699C9.86699 6.18921 9.68644 6.63088 9.32533 6.99199C8.96421 7.3531 8.52255 7.53366 8.00033 7.53366ZM8.00033 10.667C6.3781 10.667 4.91144 10.2059 3.60033 9.28366C2.28921 8.36144 1.31144 7.15588 0.666992 5.66699C1.31144 4.1781 2.28921 2.97255 3.60033 2.05033C4.91144 1.1281 6.3781 0.666992 8.00033 0.666992C9.62255 0.666992 11.0892 1.1281 12.4003 2.05033C13.7114 2.97255 14.6892 4.1781 15.3337 5.66699C14.6892 7.15588 13.7114 8.36144 12.4003 9.28366C11.0892 10.2059 9.62255 10.667 8.00033 10.667ZM8.00033 9.66699C9.34477 9.66699 10.5809 9.3031 11.7087 8.57533C12.8364 7.84755 13.6948 6.8781 14.2837 5.66699C13.6948 4.45588 12.8364 3.48644 11.7087 2.75866C10.5809 2.03088 9.34477 1.66699 8.00033 1.66699C6.65588 1.66699 5.41977 2.03088 4.29199 2.75866C3.16421 3.48644 2.30033 4.45588 1.70033 5.66699C2.30033 6.8781 3.16421 7.84755 4.29199 8.57533C5.41977 9.3031 6.65588 9.66699 8.00033 9.66699Z" fill="black"/>
</svg>
